<svg width="1920" height="773" viewBox="0 0 1920 773" fill="none" xmlns="http://www.w3.org/2000/svg">
<path fill-rule="evenodd" clip-rule="evenodd" d="M263.68 185.366H259.789V157.027H261.555C262.682 157.128 263.742 156.477 264.161 155.426C264.581 154.375 264.26 153.173 263.373 152.47C263.373 152.47 260.813 149.91 257.152 145.814C257.233 145.611 257.277 145.394 257.28 145.174V123.44C257.28 121.977 256.094 120.79 254.63 120.79C253.167 120.79 251.981 121.977 251.981 123.44V139.363C246.225 132.091 241.766 123.881 238.797 115.094V93.3344H239.232C240.646 93.3344 241.792 92.1882 241.792 90.7744V85.04C241.792 83.6262 240.646 82.48 239.232 82.48H237.594C227.709 65.2559 221.936 45.9818 220.723 26.16H221.261C222.724 26.16 223.91 24.9737 223.91 23.5104C223.91 22.0471 222.724 20.8608 221.261 20.8608H220.518V3.12C220.518 1.65666 219.332 0.470398 217.869 0.470398C216.405 0.470398 215.219 1.65666 215.219 3.12V21.04H214.477C213.013 21.04 211.827 22.2263 211.827 23.6896C211.827 25.1529 213.013 26.3392 214.477 26.3392H215.04C213.757 46.0816 207.95 65.2643 198.067 82.4032H196.429C195.015 82.4032 193.869 83.5493 193.869 84.9632V90.7232C193.869 92.137 195.015 93.2832 196.429 93.2832H196.864V115.043C193.906 123.834 189.445 132.046 183.68 139.312V123.44C183.68 121.977 182.494 120.79 181.03 120.79C179.567 120.79 178.381 121.977 178.381 123.44V145.123C178.354 145.336 178.354 145.551 178.381 145.763C175.012 149.641 172.515 152.074 172.193 152.387L172.16 152.419C171.187 153.112 170.823 154.386 171.282 155.489C171.742 156.592 172.903 157.23 174.08 157.027H175.846V185.366H171.955C170.541 185.366 169.395 186.513 169.395 187.926V279.754C169.395 281.167 170.541 282.314 171.955 282.314H175.846V463.459H158.49V395.594H94.4896V431.69H78.3616V460.003H52.7616V339.965H0V772.938H1920V448.56H1866.55V480.048H1845.43V527.818H1824.95V464.176H1808.82V411.133H1757.36V566.32H1732.28V447.408H1722.88V377.008H1680.28V479.946H1668.81V418.096H1625.6V617.776H1624.63C1614.65 560.114 1602.51 487.467 1602.51 475.594V411.184C1602.51 399.152 1620.76 289.533 1623.24 274.659C1633.24 274.403 1643.13 272.615 1652.58 269.36C1653.36 269.055 1653.86 268.309 1653.86 267.478C1653.86 266.648 1653.36 265.901 1652.58 265.597L1646.23 263.037L1649 255.766C1654.34 255.185 1659.58 253.947 1664.61 252.08C1665.39 251.797 1665.92 251.066 1665.95 250.237C1666.05 249.375 1665.59 248.543 1664.79 248.189C1663.56 247.651 1652.68 243.069 1648.2 243.069H1644.34L1645.11 239.229H1647.67C1648.65 239.246 1649.51 238.551 1649.69 237.583C1649.87 236.616 1649.33 235.656 1648.41 235.312L1610.65 220.208C1610.38 220.11 1610.21 219.852 1610.21 219.568C1610.2 219.324 1610.33 219.096 1610.55 218.979L1618.23 214.755C1618.95 214.337 1619.35 213.52 1619.23 212.692C1619.11 211.864 1618.5 211.191 1617.69 210.992L1611.83 209.661L1610.14 205.846C1609.81 205.117 1609.09 204.646 1608.29 204.643H1598.28L1597.36 200.906C1597.13 200.006 1596.32 199.375 1595.39 199.37H1593.47V167.267C1593.47 166.15 1592.57 165.245 1591.45 165.245C1590.33 165.245 1589.43 166.15 1589.43 167.267V199.318H1587.48C1586.56 199.317 1585.75 199.953 1585.54 200.854L1584.59 204.592H1574.4C1573.59 204.584 1572.86 205.057 1572.53 205.795L1570.84 209.61L1564.98 210.941C1564.17 211.139 1563.56 211.812 1563.44 212.641C1563.32 213.469 1563.72 214.286 1564.44 214.704L1572.12 218.928C1572.34 219.045 1572.46 219.273 1572.45 219.517C1572.46 219.795 1572.3 220.05 1572.04 220.157L1534.26 235.261C1533.34 235.605 1532.8 236.564 1532.98 237.532C1533.16 238.5 1534.02 239.195 1535 239.178H1537.56L1538.33 243.018H1534.49C1530.45 243.018 1521.31 246.74 1518.56 247.862C1518.38 247.934 1518.23 247.996 1518.11 248.044C1518.01 248.084 1517.93 248.115 1517.88 248.138C1517.12 248.45 1516.63 249.188 1516.63 250.006C1516.63 250.825 1517.12 251.562 1517.88 251.875C1522.91 253.739 1528.15 254.977 1533.49 255.562L1536.26 262.832L1529.91 265.392C1529.14 265.703 1528.65 266.46 1528.68 267.286C1528.69 268.119 1529.21 268.86 1529.98 269.155C1539.41 272.417 1549.28 274.221 1559.24 274.506C1561.8 289.379 1580.01 398.998 1580.01 411.03V475.414C1580.01 485.613 1571.04 540.646 1562.19 592.509H1546.62V452.067H1503.39V479.946H1491.92V377.008H1449.42V447.408H1439.92V566.32H1414.86V411.133H1363.4V464.176H1347.28V527.715H1326.8V479.946H1305.6V448.56H1258.6V558.64H1235.28V505.136H1203.64V394.595H1148.98V598.422H1121.95V478.384H1077.07V494.307H1067.52V528.714H1051.49V506.365H990.362V549.475H978.944V467.837H917.734V510.947H895.616V615.139H874.01V426.339H862.31V394.109L841.83 373.629H811.878V467.862H788.48V529.789H750.592V513.2H740.941V576.56H728.55V617.52H716.058V571.747H704.358V543.434H693.402V551.754H686.285V569.546H653.926V613.219H639.459L620.39 569.366C623.872 567.805 627.302 566.166 630.63 564.426C632.293 568.581 636.137 571.46 640.592 571.886C645.048 572.312 649.368 570.214 651.788 566.449C654.207 562.684 654.321 557.882 652.083 554.006C651.771 553.508 651.429 553.029 651.059 552.573C655.386 549.757 659.635 546.787 663.731 543.69C664.038 544.194 664.371 544.681 664.73 545.149C669.063 549.85 676.324 550.32 681.228 546.217C686.131 542.114 686.949 534.883 683.085 529.789C682.69 529.339 682.263 528.92 681.805 528.534C685.568 525.002 689.229 521.366 692.762 517.578C693.14 518.041 693.56 518.47 694.016 518.858C697.29 521.601 701.78 522.39 705.793 520.926C709.806 519.463 712.734 515.969 713.473 511.761C714.212 507.554 712.65 503.272 709.376 500.528C708.916 500.158 708.428 499.824 707.917 499.53C711.023 495.399 713.984 491.133 716.8 486.73C717.251 487.1 717.73 487.434 718.234 487.728C723.953 491.036 731.271 489.082 734.579 483.363C737.888 477.644 735.933 470.326 730.214 467.018C729.717 466.732 729.194 466.492 728.653 466.301C731.008 461.718 733.184 457.034 735.232 452.272C735.715 452.552 736.22 452.791 736.742 452.989C740.758 454.452 745.248 453.662 748.523 450.917C751.798 448.171 753.359 443.887 752.619 439.678C751.879 435.47 748.949 431.975 744.934 430.512C744.411 430.319 743.871 430.174 743.322 430.077C744.823 425.162 746.163 420.178 747.341 415.126C747.855 415.322 748.386 415.468 748.928 415.562C755.306 416.44 761.238 412.12 762.36 405.781C763.482 399.441 759.393 393.348 753.101 391.984C752.538 391.984 751.974 391.984 751.411 391.856C752.051 386.736 752.486 381.616 752.768 376.496C753.318 376.586 753.874 376.638 754.432 376.65C758.84 376.854 763.003 374.618 765.268 370.831C767.533 367.044 767.533 362.319 765.268 358.532C763.003 354.745 758.84 352.51 754.432 352.714C753.874 352.725 753.318 352.777 752.768 352.867C752.486 347.747 752.051 342.627 751.411 337.507C751.973 337.558 752.539 337.558 753.101 337.507C759.393 336.143 763.482 330.05 762.36 323.71C761.238 317.371 755.306 313.051 748.928 313.93C748.392 314.048 747.862 314.193 747.341 314.365C746.163 309.245 744.823 304.261 743.322 299.414C743.87 299.326 744.41 299.189 744.934 299.005C750.92 296.587 753.914 289.863 751.706 283.797C749.498 277.732 742.881 274.506 736.742 276.502C736.225 276.71 735.72 276.95 735.232 277.219C733.184 272.458 731.008 267.798 728.653 263.216C729.189 263.014 729.711 262.774 730.214 262.499C734.074 260.438 736.502 256.436 736.55 252.061C736.597 247.685 734.255 243.632 730.441 241.488C726.627 239.344 721.947 239.449 718.234 241.763C717.735 242.075 717.257 242.417 716.8 242.787C713.984 238.461 711.014 234.211 707.917 229.987C708.425 229.687 708.912 229.353 709.376 228.989C712.895 226.319 714.66 221.93 713.969 217.567C713.277 213.204 710.241 209.576 706.068 208.126C701.896 206.676 697.264 207.64 694.016 210.634C693.564 211.034 693.137 211.462 692.736 211.914C689.229 208.15 685.568 204.49 681.805 200.957C682.263 200.572 682.69 200.152 683.085 199.702C686.078 196.454 687.042 191.822 685.592 187.65C684.142 183.477 680.514 180.441 676.151 179.75C671.788 179.058 667.399 180.823 664.73 184.342C664.359 184.802 664.025 185.29 663.731 185.802C659.601 182.713 655.377 179.751 651.059 176.918C651.429 176.462 651.771 175.983 652.083 175.485C654.397 171.771 654.503 167.091 652.358 163.277C650.214 159.463 646.161 157.122 641.786 157.169C637.41 157.216 633.409 159.645 631.347 163.504C631.072 164.007 630.832 164.529 630.63 165.066C626.048 162.71 621.363 160.534 616.602 158.486C616.89 158.004 617.138 157.499 617.344 156.976C619.34 150.837 616.115 144.221 610.049 142.013C603.984 139.805 597.259 142.799 594.842 148.784C594.661 149.311 594.516 149.85 594.406 150.397C589.491 148.895 584.516 147.555 579.482 146.378C579.654 145.856 579.799 145.327 579.917 144.79C580.795 138.412 576.476 132.481 570.136 131.359C563.796 130.237 557.703 134.326 556.339 140.618C556.25 141.177 556.199 141.741 556.186 142.307C551.066 141.667 545.946 141.232 540.826 140.95C540.916 140.4 540.967 139.844 540.979 139.286C541.183 134.879 538.948 130.715 535.161 128.451C531.374 126.186 526.649 126.186 522.862 128.451C519.075 130.715 516.839 134.879 517.043 139.286C517.055 139.844 517.106 140.4 517.197 140.95C512.077 141.232 506.957 141.667 501.837 142.307V140.618C501.238 136.269 498.309 132.596 494.202 131.044C490.095 129.493 485.469 130.312 482.145 133.178C478.82 136.045 477.329 140.5 478.259 144.79C478.353 145.332 478.499 145.864 478.694 146.378C473.574 147.555 468.591 148.895 463.744 150.397C463.647 149.847 463.501 149.308 463.309 148.784C461.845 144.769 458.351 141.839 454.142 141.099C449.934 140.359 445.649 141.92 442.904 145.195C440.158 148.47 439.369 152.961 440.832 156.976C441.029 157.498 441.269 158.003 441.549 158.486C436.787 160.534 432.102 162.71 427.52 165.066C427.329 164.524 427.089 164.002 426.803 163.504C424.663 159.804 420.712 157.528 416.438 157.531C412.164 157.535 408.216 159.819 406.083 163.522C403.949 167.225 403.953 171.785 406.093 175.485C406.387 175.988 406.721 176.468 407.091 176.918C402.773 179.734 398.549 182.695 394.419 185.802C394.125 185.29 393.791 184.802 393.421 184.342C389.179 179.281 381.638 178.616 376.576 182.858C371.514 187.099 370.85 194.641 375.091 199.702C375.472 200.165 375.901 200.585 376.371 200.957C372.582 204.49 368.947 208.15 365.414 211.914C365.029 211.456 364.61 211.028 364.16 210.634C359.066 206.77 351.835 207.587 347.732 212.49C343.628 217.394 344.099 224.655 348.8 228.989C349.268 229.348 349.755 229.681 350.259 229.987C347.17 234.117 344.209 238.384 341.376 242.787C340.919 242.417 340.441 242.075 339.942 241.763C336.054 239.384 331.153 239.418 327.298 241.85C323.443 244.282 321.301 248.691 321.774 253.224C322.246 257.758 325.25 261.631 329.523 263.216C327.194 267.798 324.992 272.458 322.97 277.219C322.472 276.95 321.96 276.71 321.434 276.502C315.316 274.582 308.771 277.819 306.584 283.846C304.396 289.873 307.342 296.555 313.267 299.005C313.79 299.195 314.33 299.332 314.88 299.414C313.37 304.33 312.013 309.322 310.861 314.365C310.331 314.193 309.793 314.047 309.248 313.93C302.886 313.09 296.992 317.412 295.881 323.732C294.769 330.052 298.834 336.126 305.101 337.507C305.654 337.558 306.211 337.558 306.765 337.507C306.15 342.627 305.698 347.747 305.408 352.867C304.858 352.776 304.302 352.724 303.744 352.714C297.349 353.009 292.317 358.28 292.317 364.682C292.317 371.083 297.349 376.354 303.744 376.65C304.302 376.639 304.858 376.588 305.408 376.496C305.698 381.616 306.15 386.736 306.765 391.856C306.202 391.856 305.664 391.856 305.101 391.984C298.655 393.214 294.398 399.4 295.552 405.859C296.101 408.983 297.869 411.76 300.467 413.579C303.064 415.399 306.278 416.112 309.402 415.562C309.944 415.471 310.476 415.325 310.989 415.126C312.166 420.246 313.549 425.162 315.008 430.077C314.466 430.171 313.935 430.316 313.421 430.512C309.406 431.971 306.474 435.461 305.73 439.667C304.985 443.874 306.542 448.158 309.813 450.906C313.084 453.654 317.572 454.448 321.587 452.989C322.118 452.792 322.631 452.552 323.123 452.272C325.146 457.034 327.347 461.718 329.677 466.301C329.144 466.492 328.63 466.732 328.141 467.018C324.441 469.153 322.162 473.1 322.162 477.372C322.161 481.644 324.44 485.591 328.139 487.727C331.839 489.863 336.396 489.864 340.096 487.728C340.6 487.434 341.079 487.1 341.53 486.73C344.346 491.047 347.307 495.314 350.413 499.53C349.905 499.83 349.417 500.163 348.954 500.528C345.363 503.173 343.538 507.593 344.217 512.001C344.897 516.408 347.968 520.074 352.189 521.514C356.41 522.954 361.082 521.931 364.314 518.858C364.77 518.47 365.19 518.041 365.568 517.578C368.309 520.539 371.144 523.407 374.049 526.205H351.667V562.301H340.019V545.994H309.914V470.602H298.189V454.934H259.686V282.493H263.68C265.094 282.493 266.24 281.347 266.24 279.933V188.003C266.261 187.311 266 186.64 265.518 186.143C265.036 185.646 264.372 185.366 263.68 185.366ZM1580.11 592.509H1566.42C1571.54 562.52 1576.69 531.55 1580.11 508.746V592.509ZM189.926 525.36V534.218H195.226V525.36C195.226 523.897 194.039 522.71 192.576 522.71C191.113 522.71 189.926 523.897 189.926 525.36ZM202.573 525.36V534.218H207.872V525.36C207.872 523.897 206.686 522.71 205.222 522.71C203.759 522.71 202.573 523.897 202.573 525.36ZM215.219 549.168V560.202H220.518V549.168C220.518 547.705 219.332 546.518 217.869 546.518C216.405 546.518 215.219 547.705 215.219 549.168ZM228.352 560.202V547.602C228.03 548.041 227.84 548.582 227.84 549.168V560.202H228.352ZM228.352 535.876V523.83C228.046 524.262 227.866 524.79 227.866 525.36V534.346C227.866 534.916 228.046 535.444 228.352 535.876ZM228.352 470.602H233.165V464.918C233.165 463.455 231.979 462.269 230.515 462.269C229.052 462.269 227.866 463.455 227.866 464.918V510.538C227.866 511.108 228.046 511.636 228.352 512.068V470.602ZM240.435 470.602H245.76V464.918C245.76 463.448 244.568 462.256 243.098 462.256C241.627 462.256 240.435 463.448 240.435 464.918V470.602ZM590.848 580.17L600.677 613.219H594.816V617.674H555.366V598.346H537.331C539.503 596.286 540.907 593.417 541.056 590.205C541.045 589.647 540.994 589.091 540.902 588.541C546.022 588.251 551.142 587.798 556.262 587.184C556.254 587.741 556.297 588.298 556.39 588.848C557.772 595.115 563.846 599.18 570.166 598.068C576.486 596.956 580.808 591.063 579.968 584.701C579.853 584.164 579.708 583.634 579.533 583.114C583.347 582.218 587.213 581.245 590.848 580.17ZM517.12 590.205C517.269 593.417 518.673 596.286 520.845 598.346H509.03V617.674H456.277L467.43 580.17C471.168 581.245 474.957 582.218 478.771 583.114C478.572 583.626 478.427 584.158 478.336 584.701C477.496 591.063 481.818 596.956 488.138 598.068C494.458 599.18 500.532 595.115 501.914 588.848V587.184C507.034 587.798 512.154 588.259 517.274 588.541C517.182 589.091 517.131 589.647 517.12 590.205ZM418.253 614.582L420.941 608.4V603.517H418.253V614.582ZM437.914 569.366L427.172 594.07H415.667V571.904C415.977 571.928 416.289 571.941 416.602 571.941C420.874 571.94 424.821 569.661 426.957 565.962C427.242 565.473 427.482 564.958 427.674 564.426C431.053 566.166 434.509 567.805 437.914 569.366ZM417.664 553.827C416.996 553.432 416.331 553.034 415.667 552.632V542.176C417.785 543.537 419.927 544.861 422.093 546.147L417.664 553.827ZM398.336 536.47V540.975C400.359 542.48 402.407 543.95 404.48 545.384V536.47H398.336ZM398.49 546.569L398.336 546.458V546.71H398.687C398.621 546.663 398.556 546.616 398.49 546.569ZM424.269 542.41C421.357 540.68 418.489 538.881 415.667 537.013V526.205H400.803C399.976 525.546 399.153 524.88 398.336 524.208L515.149 384.97L424.269 542.41ZM392.346 524.771L391.118 526.205H380.569C374.181 520.314 368.145 514.049 362.496 507.44L369.306 501.731C376.38 509.994 384.083 517.697 392.346 524.771ZM183.245 277.526H179.686V274.966C179.603 274.261 179.932 273.57 180.533 273.191C181.134 272.812 181.899 272.812 182.5 273.191C183.101 273.57 183.431 274.261 183.347 274.966L183.245 277.526ZM245.299 161.123C243.391 161.123 241.843 162.671 241.843 164.579V181.27H248.755V164.579C248.755 162.671 247.208 161.123 245.299 161.123ZM246.963 204.848V215.6C244.215 211.23 240.524 207.53 236.16 204.771L246.963 204.848ZM190.993 245.045C195.501 255.914 206.115 262.996 217.882 262.986C233.923 262.971 246.923 249.971 246.938 233.93C246.948 222.163 239.866 211.549 228.997 207.041C218.128 202.533 205.613 205.02 197.292 213.34C188.972 221.661 186.485 234.176 190.993 245.045ZM219.699 275.094V277.654H216.038V275.094C215.955 274.389 216.284 273.698 216.885 273.319C217.486 272.94 218.251 272.94 218.852 273.319C219.453 273.698 219.783 274.389 219.699 275.094ZM214.426 164.579V181.27H221.338V164.579C221.338 162.671 219.79 161.123 217.882 161.123C215.973 161.123 214.426 162.671 214.426 164.579ZM234.906 181.27H227.994V164.579C227.994 162.671 229.541 161.123 231.45 161.123C233.358 161.123 234.906 162.671 234.906 164.579V181.27ZM232.41 137.02C231.476 137.02 230.689 137.719 230.579 138.646V143.766H234.24V138.646C234.13 137.719 233.344 137.02 232.41 137.02ZM226.253 98.0704C226.169 97.3648 226.499 96.6739 227.1 96.2947C227.701 95.9156 228.466 95.9156 229.067 96.2947C229.668 96.6739 229.997 97.3648 229.914 98.0704V109.411H226.253V98.0704ZM225.139 126.934C224.205 126.934 223.419 127.632 223.309 128.56V133.68H226.97V128.56C226.86 127.632 226.073 126.934 225.139 126.934ZM219.443 98.0704C219.36 97.3648 219.689 96.6739 220.29 96.2947C220.891 95.9156 221.656 95.9156 222.257 96.2947C222.858 96.6739 223.188 97.3648 223.104 98.0704V109.411H219.443V98.0704ZM219.699 138.646C219.699 137.643 218.885 136.829 217.882 136.829C217.395 136.822 216.926 137.01 216.58 137.352C216.233 137.694 216.038 138.16 216.038 138.646V143.766H219.699V138.646ZM212.762 98.0704C212.678 97.3648 213.007 96.6739 213.608 96.2947C214.209 95.9156 214.975 95.9156 215.576 96.2947C216.177 96.6739 216.506 97.3648 216.422 98.0704V109.411H212.634L212.762 98.0704ZM212.48 133.68V128.56C212.48 127.535 211.649 126.704 210.624 126.704C209.599 126.704 208.768 127.535 208.768 128.56V133.68H212.48ZM205.824 98.0704C205.74 97.3648 206.07 96.6739 206.671 96.2947C207.272 95.9156 208.037 95.9156 208.638 96.2947C209.239 96.6739 209.568 97.3648 209.485 98.0704V109.411H205.824V98.0704ZM203.328 137.02C202.394 137.02 201.607 137.719 201.498 138.646V143.766H205.158V138.646C205.049 137.719 204.262 137.02 203.328 137.02ZM200.704 164.579C200.704 162.671 202.251 161.123 204.16 161.123C206.069 161.123 207.616 162.671 207.616 164.579V181.27H200.704V164.579ZM188.8 215.6C191.587 211.255 195.303 207.583 199.68 204.848H188.8V215.6ZM186.88 164.579C186.88 162.671 188.427 161.123 190.336 161.123C192.245 161.123 193.792 162.671 193.792 164.579V181.27H186.88V164.579ZM187.727 273.319C187.126 273.698 186.796 274.389 186.88 275.094V277.654H190.541V275.094C190.624 274.389 190.295 273.698 189.694 273.319C189.093 272.94 188.328 272.94 187.727 273.319ZM195.226 510.538C195.226 512.001 194.039 513.187 192.576 513.187C191.113 513.187 189.926 512.001 189.926 510.538V464.918C189.926 463.455 191.113 462.269 192.576 462.269C194.039 462.269 195.226 463.455 195.226 464.918V510.538ZM192.576 452.848C194.039 452.848 195.226 451.662 195.226 450.198V441.238C195.226 439.775 194.039 438.589 192.576 438.589C191.113 438.589 189.926 439.775 189.926 441.238V450.198C189.926 451.662 191.113 452.848 192.576 452.848ZM195.226 426.39C195.226 427.854 194.039 429.04 192.576 429.04C191.113 429.04 189.926 427.854 189.926 426.39V380.771C189.926 379.308 191.113 378.122 192.576 378.122C194.039 378.122 195.226 379.308 195.226 380.771V426.39ZM192.576 368.701C194.039 368.701 195.226 367.515 195.226 366.051V357.091C195.226 355.628 194.039 354.442 192.576 354.442C191.113 354.442 189.926 355.628 189.926 357.091V366.051C189.926 367.515 191.113 368.701 192.576 368.701ZM195.226 342.269C195.226 343.732 194.039 344.918 192.576 344.918C191.113 344.918 189.926 343.732 189.926 342.269V296.65C189.926 295.186 191.113 294 192.576 294C194.039 294 195.226 295.186 195.226 296.65V342.269ZM194.227 277.629H197.786L197.888 275.069C197.972 274.363 197.642 273.672 197.041 273.293C196.44 272.914 195.675 272.914 195.074 273.293C194.473 273.672 194.144 274.363 194.227 275.069V277.629ZM188.698 263.088V252.182C191.498 256.564 195.252 260.257 199.68 262.986L188.698 263.088ZM202.344 273.421C201.743 273.8 201.414 274.491 201.498 275.197V277.757H205.158V275.197C205.242 274.491 204.913 273.8 204.312 273.421C203.711 273.042 202.945 273.042 202.344 273.421ZM207.872 510.538C207.872 512.001 206.686 513.187 205.222 513.187C203.759 513.187 202.573 512.001 202.573 510.538V464.918C202.573 463.455 203.759 462.269 205.222 462.269C206.686 462.269 207.872 463.455 207.872 464.918V510.538ZM205.222 452.848C206.686 452.848 207.872 451.662 207.872 450.198V441.238C207.872 439.775 206.686 438.589 205.222 438.589C203.759 438.589 202.573 439.775 202.573 441.238V450.198C202.573 451.662 203.759 452.848 205.222 452.848ZM207.872 426.39C207.872 427.854 206.686 429.04 205.222 429.04C203.759 429.04 202.573 427.854 202.573 426.39V380.771C202.573 379.308 203.759 378.122 205.222 378.122C206.686 378.122 207.872 379.308 207.872 380.771V426.39ZM205.222 368.701C206.686 368.701 207.872 367.515 207.872 366.051V357.091C207.872 355.628 206.686 354.442 205.222 354.442C203.759 354.442 202.573 355.628 202.573 357.091V366.051C202.573 367.515 203.759 368.701 205.222 368.701ZM207.872 342.269C207.872 343.732 206.686 344.918 205.222 344.918C203.759 344.918 202.573 343.732 202.573 342.269V296.65C202.573 295.186 203.759 294 205.222 294C206.686 294 207.872 295.186 207.872 296.65V342.269ZM208.768 277.526H212.48L212.429 274.966C212.512 274.261 212.183 273.57 211.582 273.191C210.981 272.812 210.216 272.812 209.615 273.191C209.014 273.57 208.684 274.261 208.768 274.966V277.526ZM217.869 536.995C219.332 536.995 220.518 535.809 220.518 534.346V525.36C220.518 523.897 219.332 522.71 217.869 522.71C216.405 522.71 215.219 523.897 215.219 525.36V534.346C215.219 535.809 216.405 536.995 217.869 536.995ZM220.518 510.538C220.518 512.001 219.332 513.187 217.869 513.187C216.405 513.187 215.219 512.001 215.219 510.538V464.918C215.219 463.455 216.405 462.269 217.869 462.269C219.332 462.269 220.518 463.455 220.518 464.918V510.538ZM217.869 452.848C219.332 452.848 220.518 451.662 220.518 450.198V441.238C220.518 439.775 219.332 438.589 217.869 438.589C216.405 438.589 215.219 439.775 215.219 441.238V450.198C215.219 451.662 216.405 452.848 217.869 452.848ZM220.518 426.39C220.518 427.854 219.332 429.04 217.869 429.04C216.405 429.04 215.219 427.854 215.219 426.39V380.771C215.219 379.308 216.405 378.122 217.869 378.122C219.332 378.122 220.518 379.308 220.518 380.771V426.39ZM217.869 368.701C219.332 368.701 220.518 367.515 220.518 366.051V357.091C220.518 355.628 219.332 354.442 217.869 354.442C216.405 354.442 215.219 355.628 215.219 357.091V366.051C215.219 367.515 216.405 368.701 217.869 368.701ZM220.518 342.269C220.518 343.732 219.332 344.918 217.869 344.918C216.405 344.918 215.219 343.732 215.219 342.269V296.65C215.219 295.186 216.405 294 217.869 294C219.332 294 220.518 295.186 220.518 296.65V342.269ZM223.309 275.069V277.629H226.97V275.069C227.053 274.363 226.724 273.672 226.123 273.293C225.522 272.914 224.757 272.914 224.156 273.293C223.555 273.672 223.225 274.363 223.309 275.069ZM230.515 452.848C231.979 452.848 233.165 451.662 233.165 450.198V441.238C233.165 439.775 231.979 438.589 230.515 438.589C229.052 438.589 227.866 439.775 227.866 441.238V450.198C227.866 451.662 229.052 452.848 230.515 452.848ZM233.165 426.39C233.165 427.854 231.979 429.04 230.515 429.04C229.052 429.04 227.866 427.854 227.866 426.39V380.771C227.866 379.308 229.052 378.122 230.515 378.122C231.979 378.122 233.165 379.308 233.165 380.771V426.39ZM230.515 368.701C231.979 368.701 233.165 367.515 233.165 366.051V357.091C233.165 355.628 231.979 354.442 230.515 354.442C229.052 354.442 227.866 355.628 227.866 357.091V366.051C227.866 367.515 229.052 368.701 230.515 368.701ZM233.165 342.269C233.165 343.732 231.979 344.918 230.515 344.918C229.052 344.918 227.866 343.732 227.866 342.269V296.65C227.866 295.186 229.052 294 230.515 294C231.979 294 233.165 295.186 233.165 296.65V342.269ZM230.579 277.629H234.24V275.069C234.324 274.363 233.994 273.672 233.393 273.293C232.792 272.914 232.027 272.914 231.426 273.293C230.825 273.672 230.496 274.363 230.579 275.069V277.629ZM247.04 252.285V263.088H236.134C240.514 260.316 244.207 256.588 246.938 252.182L247.04 252.285ZM238.799 273.421C238.198 273.8 237.868 274.491 237.952 275.197L237.85 277.757H241.613V275.197C241.696 274.491 241.367 273.8 240.766 273.421C240.165 273.042 239.4 273.042 238.799 273.421ZM243.098 452.861C244.568 452.861 245.76 451.669 245.76 450.198V441.238C245.76 439.768 244.568 438.576 243.098 438.576C241.627 438.576 240.435 439.768 240.435 441.238V450.198C240.435 451.669 241.627 452.861 243.098 452.861ZM245.76 426.39C245.76 427.861 244.568 429.053 243.098 429.053C241.627 429.053 240.435 427.861 240.435 426.39V380.771C240.435 379.301 241.627 378.109 243.098 378.109C244.568 378.109 245.76 379.301 245.76 380.771V426.39ZM243.098 368.714C244.568 368.714 245.76 367.522 245.76 366.051V357.091C245.76 355.621 244.568 354.429 243.098 354.429C241.627 354.429 240.435 355.621 240.435 357.091V366.051C240.435 367.522 241.627 368.714 243.098 368.714ZM245.76 342.269C245.76 343.739 244.568 344.931 243.098 344.931C241.627 344.931 240.435 343.739 240.435 342.269V296.65C240.435 295.179 241.627 293.987 243.098 293.987C244.568 293.987 245.76 295.179 245.76 296.65V342.269ZM245.12 277.629H248.704L248.781 275.069C248.864 274.363 248.535 273.672 247.934 273.293C247.333 272.914 246.568 272.914 245.967 273.293C245.366 273.672 245.036 274.363 245.12 275.069V277.629ZM255.974 277.629H252.39V275.069C252.307 274.363 252.636 273.672 253.237 273.293C253.838 272.914 254.603 272.914 255.204 273.293C255.805 273.672 256.135 274.363 256.051 275.069L255.974 277.629ZM493.363 581.475L494.899 572.72C505.632 574.483 516.484 575.424 527.36 575.536V584.419C515.969 584.305 504.604 583.321 493.363 581.475ZM531.558 575.536V584.419C542.906 584.299 554.229 583.315 565.427 581.475L563.891 572.72C553.201 574.479 542.392 575.42 531.558 575.536ZM641.152 553.827L636.698 546.147C646.02 540.625 654.903 534.394 663.27 527.51L668.954 534.32C660.204 541.531 650.909 548.053 641.152 553.827ZM543.642 384.97L634.547 542.41C643.641 537.009 652.31 530.924 660.48 524.208L543.642 384.97ZM309.76 366.794H318.618C318.736 377.627 319.677 388.436 321.434 399.126L312.678 400.662C310.835 389.465 309.859 378.142 309.76 366.794ZM334.669 295.907C331.12 305.913 328.372 316.186 326.451 326.627L505.549 358.09L334.669 295.907ZM504.806 362.467H323.046C323.066 351.862 323.914 341.274 325.581 330.8L504.806 362.467ZM349.568 263.242C344.358 272.445 339.873 282.039 336.154 291.939L507.008 354.122L349.568 263.242ZM460.8 169.75C470.815 166.229 481.085 163.482 491.52 161.533L523.11 340.733L460.8 169.75ZM428.032 184.675L518.938 342.115L456.73 171.235C446.836 174.979 437.242 179.472 428.032 184.675ZM495.693 160.79C506.163 159.067 516.75 158.151 527.36 158.051V339.811L495.693 160.79ZM563.2 160.79C552.73 159.067 542.143 158.151 531.533 158.051L531.61 339.99L563.2 160.79ZM567.373 161.533C577.809 163.478 588.079 166.226 598.093 169.75L535.91 340.656L567.373 161.533ZM630.758 184.675C621.551 179.467 611.957 174.974 602.061 171.235L539.878 342.115L630.758 184.675ZM724.25 296.01C727.774 306.023 730.522 316.294 732.467 326.73L553.267 358.294L724.25 296.01ZM709.325 263.242L551.885 354.122L722.765 291.939C719.026 282.043 714.533 272.449 709.325 263.242ZM733.235 330.8C734.954 341.245 735.87 351.806 735.974 362.39H554.214L733.235 330.8ZM733.235 398.205C734.953 387.769 735.869 377.216 735.974 366.64H554.035L733.235 398.205ZM732.493 402.48C730.544 412.915 727.797 423.185 724.275 433.2L553.395 370.992L732.493 402.48ZM709.35 465.866C714.554 456.655 719.047 447.062 722.79 437.168L551.91 374.96L709.35 465.866ZM334.541 433.2C330.995 423.193 328.248 412.921 326.323 402.48L505.523 370.89L334.541 433.2ZM349.44 466.019L506.88 375.114L336.026 437.322C339.749 447.219 344.234 456.814 349.44 466.019ZM325.555 398.358C323.824 387.924 322.908 377.37 322.816 366.794H504.576L325.555 398.358ZM312.525 328.65C310.681 339.847 309.706 351.17 309.606 362.518H318.464C318.58 351.685 319.521 340.876 321.28 330.186L312.525 328.65ZM313.293 324.374C315.364 313.213 318.309 302.231 322.099 291.53L330.445 294.576C326.833 304.788 324.017 315.264 322.022 325.91L313.293 324.374ZM337.92 256.56C332.318 266.465 327.508 276.797 323.533 287.459L331.853 290.378C335.673 280.242 340.269 270.417 345.6 260.989L337.92 256.56ZM340.122 252.925C345.896 243.167 352.418 233.872 359.629 225.123L366.438 230.806C359.555 239.173 353.324 248.057 347.802 257.379L340.122 252.925ZM509.056 350.358L369.818 233.52C363.102 241.69 357.017 250.36 351.616 259.453L509.056 350.358ZM372.608 230.218C379.498 222.228 386.986 214.773 395.008 207.92L511.846 347.133L372.608 230.218ZM424.141 186.826C415.042 192.218 406.372 198.303 398.208 205.027L515.021 344.266L424.141 186.826ZM395.418 201.699L389.709 194.915C398.473 187.704 407.776 181.174 417.536 175.382L421.965 183.062C412.698 188.604 403.866 194.843 395.546 201.725L395.418 201.699ZM451.994 158.794C441.399 162.802 431.128 167.621 421.274 173.206L425.651 180.912C435.065 175.562 444.882 170.957 455.014 167.139L451.994 158.794ZM456.141 157.309C466.837 153.53 477.809 150.586 488.96 148.502L490.522 157.258C479.868 159.247 469.384 162.054 459.162 165.654L456.141 157.309ZM527.36 153.725V144.842C516.011 144.949 504.688 145.933 493.491 147.786L495.027 156.541C505.716 154.772 516.526 153.83 527.36 153.725ZM531.686 144.842C543.035 144.949 554.358 145.933 565.555 147.786L564.019 156.541C553.33 154.769 542.521 153.828 531.686 153.725V144.842ZM602.675 157.334C591.971 153.556 580.99 150.611 569.83 148.528L568.294 157.283C578.94 159.27 589.416 162.077 599.629 165.68L602.675 157.334ZM606.746 158.768C617.343 162.77 627.614 167.589 637.466 173.181L633.037 180.861C623.615 175.511 613.788 170.906 603.648 167.088L606.746 158.768ZM663.398 201.674L669.082 194.89L668.954 194.941C660.24 187.726 650.989 181.188 641.28 175.382L636.826 183.062C646.147 188.576 655.031 194.798 663.398 201.674ZM660.48 205.053L543.642 344.291L634.547 186.851C643.646 192.243 652.316 198.329 660.48 205.053ZM686.08 230.243C679.23 222.242 671.776 214.779 663.782 207.92L546.867 347.056L686.08 230.243ZM688.973 233.52C695.697 241.684 701.782 250.354 707.174 259.453L549.734 350.358L688.973 233.52ZM699.085 225.046L692.301 230.73V230.755C699.175 239.12 705.405 247.995 710.938 257.302L718.618 252.848C712.826 243.096 706.296 233.801 699.085 225.046ZM720.794 256.56C726.385 266.412 731.204 276.683 735.206 287.28L726.861 290.326C723.043 280.186 718.438 270.36 713.088 260.938L720.794 256.56ZM745.498 324.246C743.414 313.087 740.47 302.106 736.691 291.402L728.346 294.448C731.949 304.661 734.756 315.137 736.742 325.782L745.498 324.246ZM749.184 362.39C749.076 351.042 748.092 339.719 746.24 328.522L737.485 330.058C739.256 340.746 740.198 351.556 740.301 362.39H749.184ZM746.24 400.586C748.092 389.389 749.076 378.065 749.184 366.717H740.301C740.195 377.551 739.254 388.36 737.485 399.05L746.24 400.586ZM745.498 405.04C743.414 416.191 740.47 427.163 736.691 437.859L728.346 434.838C731.946 424.616 734.753 414.132 736.742 403.478L745.498 405.04ZM720.845 472.65C726.431 462.795 731.249 452.524 735.258 441.93L726.938 438.832C723.115 448.97 718.51 458.796 713.165 468.221L720.845 472.65ZM718.669 476.464C712.877 486.224 706.347 495.527 699.136 504.291L692.352 498.582C699.227 490.218 705.458 481.343 710.989 472.035L718.669 476.464ZM549.811 378.979L689.024 495.792L688.973 495.69C695.71 487.56 701.813 478.925 707.226 469.859L549.811 378.979ZM686.234 499.12C679.347 507.145 671.859 514.634 663.834 521.52L546.995 382.282L686.234 499.12ZM613.837 553.29C619.648 550.678 625.331 547.811 630.835 544.688L546.714 398.973L613.837 553.29ZM586.291 563.376C580.113 565.083 573.833 566.559 567.45 567.805L538.112 401.405L586.291 563.376ZM531.661 571.261C542.246 571.148 552.807 570.224 563.251 568.496L531.661 389.501V571.261ZM495.77 568.496L495.776 568.462C506.213 570.131 516.764 570.999 527.334 571.056V389.296L495.776 568.462L495.667 568.445L495.77 568.496ZM472.653 563.325C478.822 565.194 485.12 566.576 491.494 567.754L520.832 401.302L472.653 563.325ZM445.133 553.238C439.296 550.678 433.638 547.76 428.109 544.637L512.23 398.922L445.133 553.238ZM372.608 499.018C379.501 507.037 386.989 514.525 395.008 521.418L511.846 382.179L372.608 499.018ZM369.818 495.69C363.102 487.519 357.017 478.85 351.616 469.757L509.056 378.877L369.818 495.69ZM359.706 504.189L366.515 498.48C359.632 490.122 353.401 481.247 347.878 471.933L340.198 476.362C345.972 486.127 352.494 495.431 359.706 504.189ZM337.92 472.624C332.324 462.774 327.505 452.503 323.507 441.904L331.853 438.883C335.681 448.99 340.277 458.789 345.6 468.195L337.92 472.624ZM313.318 405.04C315.362 416.156 318.272 427.095 322.022 437.757L330.47 434.838C326.862 424.617 324.046 414.132 322.048 403.478L313.318 405.04ZM386.56 197.68L392.269 204.464C384.012 211.545 376.31 219.248 369.229 227.504L362.496 221.744C369.889 213.118 377.934 205.073 386.56 197.68ZM689.536 227.453L696.32 221.744C688.936 213.118 680.899 205.073 672.282 197.68L666.496 204.413C674.746 211.501 682.448 219.203 689.536 227.453ZM672.307 531.504L666.598 524.694C674.855 517.613 682.557 509.911 689.638 501.654L696.32 507.44C688.943 516.08 680.906 524.134 672.282 531.53L672.307 531.504ZM615.526 557.13L619.059 565.296L619.034 565.322C625.331 562.506 631.45 559.382 637.414 555.978L632.986 548.298C627.328 551.498 621.491 554.57 615.526 557.13ZM590.029 575.92C583.373 577.814 576.606 579.402 569.728 580.682L568.192 571.952C574.72 570.723 581.171 569.213 587.494 567.395L590.029 575.92ZM471.373 567.395L468.813 575.92L468.787 575.946C475.443 577.84 482.227 579.427 489.139 580.682L490.701 571.952C484.13 570.723 477.687 569.204 471.373 567.395ZM439.782 565.296C433.51 562.48 427.392 559.357 421.427 555.978L425.856 548.298C431.539 551.498 437.35 554.467 443.315 557.13L439.782 565.296ZM230.861 213.501L218.061 229.501L209.101 216.496C208.721 215.894 208.108 215.478 207.408 215.347C206.709 215.216 205.987 215.382 205.414 215.805C204.825 216.197 204.424 216.816 204.308 217.515C204.192 218.213 204.37 218.929 204.8 219.491L215.782 235.44C216.254 236.138 217.039 236.559 217.882 236.566C218.683 236.572 219.441 236.203 219.93 235.568L235.008 216.803C235.485 216.263 235.713 215.547 235.635 214.831C235.557 214.115 235.18 213.465 234.598 213.04C233.435 212.149 231.773 212.354 230.861 213.501ZM15.104 466.48H8.9344V456.112H15.104V466.48ZM8.9344 446.435H15.104V436.195H8.9344V446.435ZM44.9536 382.896H38.784V372.502H44.9536V382.896ZM38.784 362.851H44.9536V352.458H38.784V362.851ZM104.166 536.65H97.9968V526.256H104.166V536.65ZM112.384 496.56H118.554V486.166H112.384V496.56ZM118.554 476.515H112.384V466.122H118.554V476.515ZM126.771 416.381H132.941V406.013H126.771V416.381ZM147.328 456.24H141.158V446H147.328V456.24ZM141.158 436.195H147.328V425.827H141.158V436.195ZM147.328 416.15H141.158V405.782H147.328V416.15ZM161.28 530.096H163.84V472.982H161.28V530.096ZM171.341 530.096H168.576V472.982H171.264L171.341 530.096ZM288.922 466.096H265.344V462.614H288.922V466.096ZM298.291 513.456H302.234L302.08 503.088H298.291V513.456ZM302.234 493.411H298.291V483.043H302.08L302.234 493.411ZM369.69 617.802H375.834V616.752H369.69V617.802ZM375.834 607.075H369.69V596.707H375.834V607.075ZM404.48 586.8H398.336V576.56H404.48V586.8ZM398.336 566.755H404.48V556.387H398.336V566.755ZM545.997 617.571H522.445V615.882H545.997V617.571ZM522.445 609.302H545.997V605.821H522.445V609.302ZM709.12 613.45H687.36V610.275H709.12V613.45ZM687.36 604.925H709.12V601.776H687.36V604.925ZM709.12 596.4H687.36V593.251H709.12V596.4ZM687.36 587.875H709.12V584.726H687.36V587.875ZM815.053 537.52H808.883V527.152H815.053V537.52ZM820.736 412.362H826.88V401.994H820.736V412.362ZM826.88 392.317H820.736V382H826.88V392.317ZM859.315 522.493H865.485V512.253H859.315V522.493ZM867.072 476.566H845.312V473.418H867.072V476.566ZM845.312 468.067H867.072V464.893H845.312V468.067ZM867.072 459.542H845.312V456.368H867.072V459.542ZM845.312 451.018H867.072V447.843H845.312V451.018ZM867.072 442.493H845.312V439.344H867.072V442.493ZM905.754 612.4H911.923V602.16H905.754V612.4ZM911.923 592.355H905.754V582.115H911.923V592.355ZM905.754 552.266H911.923V542.026H905.754V552.266ZM930.022 612.4H923.878V602.16H930.022V612.4ZM923.878 592.355H930.022V582.115H923.878V592.355ZM930.022 492.131H923.878V481.84H930.022V492.131ZM938.266 552.266H944.435V542.026H938.266V552.266ZM944.435 512.176H938.266V501.936H944.435V512.176ZM938.266 492.131H944.435V481.84H938.266V492.131ZM984.525 590.794H978.944V580.426H984.525V590.794ZM996.48 530.659H1002.65V520.419H996.48V530.659ZM1017.04 590.794H1010.89V580.426H1017.04V590.794ZM1010.89 550.704H1017.04V540.336H1010.89V550.704ZM1017.04 530.659H1010.89V520.419H1017.04V530.659ZM1078.17 604.72H1084.31V594.48H1078.17V604.72ZM1084.31 584.675H1078.17V574.282H1084.31V584.675ZM1108.02 521.11H1114.16V510.717H1108.02V521.11ZM1114.16 501.066H1108.02V490.672H1114.16V501.066ZM1181.95 530.045H1186.07V523.082H1181.95V530.045ZM1186.07 516.605H1181.95V509.642H1186.07V516.605ZM1194.32 420.758H1198.44V413.795H1194.32V420.758ZM1198.44 407.318H1194.32V400.355H1198.44V407.318ZM1217.95 547.786H1219.74V509.386H1217.95V547.786ZM1224.86 547.786H1223.04V509.386H1224.86V547.786ZM1228.19 547.786H1229.98V509.386H1228.19V547.786ZM1268.38 541.744H1264.23V534.781H1268.38V541.744ZM1264.23 528.304H1268.38V521.341H1264.23V528.304ZM1268.38 514.864H1264.23V507.901H1268.38V514.864ZM1264.23 501.398H1268.38V494.435H1264.23V501.398ZM1268.38 487.958H1264.23V480.995H1268.38V487.958ZM1264.23 474.518H1268.38V467.555H1264.23V474.518ZM1268.38 461.053H1264.23V454.09H1268.38V461.053ZM1273.88 541.744H1278.03V534.781H1273.88V541.744ZM1278.03 528.304H1273.88V521.341H1278.03V528.304ZM1273.88 514.864H1278.03V507.901H1273.88V514.864ZM1278.03 501.398H1273.88V494.435H1278.03V501.398ZM1273.88 487.958H1278.03V480.995H1273.88V487.958ZM1278.03 474.518H1273.88V467.555H1278.03V474.518ZM1273.88 461.053H1278.03V454.09H1273.88V461.053ZM1322.96 543.766H1308.16V541.642H1322.78L1322.96 543.766ZM1308.16 538.058H1322.96L1322.78 535.933H1308.16V538.058ZM1322.96 532.349H1308.16V530.224H1322.78L1322.96 532.349ZM1308.16 526.614H1322.96L1322.78 524.49H1308.16V526.614ZM1322.96 520.906H1308.16V518.781H1322.78L1322.96 520.906ZM1308.16 515.197H1322.96L1322.78 513.072H1308.16V515.197ZM1322.96 509.462H1308.16V507.44H1322.78L1322.96 509.462ZM1308.16 503.754H1322.96L1322.78 501.629H1308.16V503.754ZM1322.96 498.045H1308.16V495.92H1322.78L1322.96 498.045ZM1308.16 492.31H1322.96L1322.78 490.186H1308.16V492.31ZM1322.96 486.602H1308.16V484.4H1322.78L1322.96 486.602ZM1354.65 543.587H1358.8V536.624H1354.65V543.587ZM1358.8 530.147H1354.65V523.158H1358.8V530.147ZM1377.72 449.098H1381.84V442.16H1377.72V449.098ZM1381.84 435.658H1377.72V428.694H1381.84V435.658ZM1377.72 422.192H1381.84V415.28H1377.72V422.192ZM1391.51 422.192H1387.26V415.28H1391.41L1391.51 422.192ZM1397.02 475.952H1401.16V469.04H1397.02V475.952ZM1401.16 462.486H1397.02V455.523H1401.16V462.486ZM1406.57 548.4H1410.71V541.437H1406.57V548.4ZM1410.71 534.934H1406.57V527.92H1410.71V534.934ZM1406.57 503.037H1410.71V496.074H1406.57V503.037ZM1410.71 435.786H1406.57V428.822H1410.71V435.786ZM1406.57 422.32H1410.71V415.28H1406.57V422.32ZM1449.11 529.123H1444.99V522.16H1449.11V529.123ZM1444.99 515.658H1449.11V508.694H1444.99V515.658ZM1458.51 429.309H1454.36V422.346H1458.51V429.309ZM1454.36 402.429H1458.51V395.466H1454.36V402.429ZM1458.51 388.963H1454.36V382H1458.51V388.963ZM1464.04 469.654H1468.16V462.691H1464.04V469.654ZM1468.16 456.214H1464.04V449.251H1468.16V456.214ZM1464.04 388.963H1468.16V382H1464.04V388.963ZM1487.36 469.552H1483.24V462.589H1487.36V469.552ZM1483.24 456.112H1487.36V449.149H1483.24V456.112ZM1487.36 429.206H1483.24V422.243H1487.36V429.206ZM1483.24 402.326H1487.36V395.363H1483.24V402.326ZM1487.36 388.861H1483.24V382H1487.36V388.861ZM1496.35 502.32H1512.17V499.99H1496.35V502.32ZM1512.17 495.562H1496.35V493.232H1512.17V495.562ZM1496.35 488.803H1512.17V486.474H1496.35V488.803ZM1675.88 502.32H1660.06V499.99H1675.88V502.32ZM1660.06 495.562H1675.88V493.232H1660.06V495.562ZM1675.88 488.803H1660.06V486.474H1675.88V488.803ZM1684.74 469.475H1688.88V462.512H1684.74V469.475ZM1688.88 456.035H1684.74V449.072H1688.88V456.035ZM1684.74 429.13H1688.88V422.166H1684.74V429.13ZM1688.88 402.25H1684.74V395.286H1688.88V402.25ZM1684.74 388.784H1688.88V382H1684.74V388.784ZM1708.19 469.475H1704.06V462.512H1708.19V469.475ZM1704.06 456.035H1708.19V449.072H1704.06V456.035ZM1708.19 388.784H1704.06V382H1708.19V388.784ZM1713.64 429.206H1717.76V422.243H1713.64V429.206ZM1717.76 402.326H1713.64V395.363H1717.76V402.326ZM1713.64 388.861H1717.76V382H1713.64V388.861ZM1727.16 529.021H1723.03V522.058H1727.16V529.021ZM1723.03 515.555H1727.16V508.592H1723.03V515.555ZM1765.56 548.298H1761.43V541.334H1765.56V548.298ZM1761.43 534.832H1765.56V527.92H1761.43V534.832ZM1765.56 502.934H1761.43V495.971H1765.56V502.934ZM1761.43 435.683H1765.56V428.72H1761.43V435.683ZM1765.56 422.218H1761.43V415.28H1765.56V422.218ZM1771.08 475.978H1775.21V469.04H1771.08V475.978ZM1775.21 462.512H1771.08V455.549H1775.21V462.512ZM1780.74 422.166H1784.88V415.28H1780.74V422.166ZM1794.56 449.123H1790.46V442.16H1794.56V449.123ZM1790.46 435.683H1794.56V428.72H1790.46V435.683ZM1794.56 422.218H1790.46V415.28H1794.56V422.218ZM1813.48 543.613H1817.6V536.65H1813.48V543.613ZM1817.6 530.173H1813.48V523.184H1817.6V530.173ZM1849.29 543.792H1863.91V541.667H1849.29V543.792ZM1863.91 538.083H1849.29V535.958H1863.91V538.083ZM1849.29 532.374H1863.91V530.25H1849.29V532.374ZM1863.91 526.64H1849.29V524.515H1863.91V526.64ZM1849.29 520.931H1863.91V518.806H1849.29V520.931ZM1863.91 515.222H1849.29V513.098H1863.91V515.222ZM1849.29 509.488H1863.91V507.44H1849.29V509.488ZM1863.91 503.779H1849.29V501.654H1863.91V503.779ZM1849.29 498.07H1863.91V495.946H1849.29V498.07ZM1863.91 492.336H1849.29V490.211H1863.91V492.336ZM1849.29 486.627H1863.91V484.4H1849.29V486.627ZM1898.34 541.77H1894.4V534.806H1898.52L1898.34 541.77ZM1894.4 528.33H1898.34L1898.52 521.366H1894.4V528.33ZM1898.34 514.89H1894.4V507.926H1898.52L1898.34 514.89ZM1894.4 501.424H1898.34L1898.52 494.461H1894.4V501.424ZM1898.34 487.984H1894.4V481.021H1898.52L1898.34 487.984ZM1894.4 474.544H1898.34L1898.52 467.581H1894.4V474.544ZM1898.34 461.078H1894.4V454.115H1898.52L1898.34 461.078ZM1903.87 541.77H1908.02V534.806H1903.87V541.77ZM1908.02 528.33H1903.87V521.366H1908.02V528.33ZM1903.87 514.89H1908.02V507.926H1903.87V514.89ZM1908.02 501.424H1903.87V494.461H1908.02V501.424ZM1903.87 487.984H1908.02V481.021H1903.87V487.984ZM1908.02 474.544H1903.87V467.581H1908.02V474.544ZM1903.87 461.078H1908.02V454.115H1903.87V461.078ZM1575.45 256.918C1574.42 256.918 1573.58 257.755 1573.58 258.787V260.656H1577.32V258.787C1577.32 257.755 1576.48 256.918 1575.45 256.918ZM1568.31 239.485C1568.31 238.463 1569.13 237.63 1570.15 237.616C1571.18 237.616 1572.02 238.453 1572.02 239.485V241.354H1568.31V239.485ZM1547.11 241.354H1550.82V239.485C1550.82 238.463 1550 237.63 1548.98 237.616C1548.48 237.616 1548.01 237.813 1547.66 238.163C1547.31 238.514 1547.11 238.989 1547.11 239.485V241.354ZM1556.12 260.656H1552.41V258.787C1552.33 258.072 1552.66 257.372 1553.27 256.988C1553.88 256.604 1554.65 256.604 1555.26 256.988C1555.87 257.372 1556.21 258.072 1556.12 258.787V260.656ZM1557.71 241.354H1561.42V239.485C1561.5 238.77 1561.17 238.07 1560.56 237.686C1559.95 237.302 1559.18 237.302 1558.57 237.686C1557.96 238.07 1557.62 238.77 1557.71 239.485V241.354ZM1563.01 258.787C1563.01 257.765 1563.83 256.932 1564.85 256.918C1565.88 256.918 1566.72 257.755 1566.72 258.787V260.656H1563.01V258.787ZM1563.79 276.641C1566.35 292.019 1574.93 343.688 1580.11 378.621V274.685H1563.47L1563.79 276.641ZM1582.67 239.485V241.354H1578.93V239.485C1578.93 238.453 1579.77 237.616 1580.8 237.616C1581.83 237.616 1582.67 238.453 1582.67 239.485ZM1584.23 260.656H1587.94V258.787C1587.94 257.765 1587.12 256.932 1586.1 256.918C1585.07 256.918 1584.23 257.755 1584.23 258.787V260.656ZM1593.24 241.354H1589.53V239.485C1589.53 238.989 1589.73 238.514 1590.08 238.163C1590.43 237.813 1590.9 237.616 1591.4 237.616C1592.42 237.63 1593.24 238.463 1593.24 239.485V241.354ZM1614.44 241.354V239.485C1614.44 238.453 1613.6 237.616 1612.57 237.616C1611.54 237.616 1610.7 238.453 1610.7 239.485V241.354H1614.44ZM1605.43 258.787C1605.43 257.765 1606.25 256.932 1607.27 256.918C1608.3 256.918 1609.14 257.755 1609.14 258.787V260.656H1605.38L1605.43 258.787ZM1594.88 260.656H1598.54L1598.59 258.787C1598.68 258.072 1598.34 257.372 1597.73 256.988C1597.12 256.604 1596.35 256.604 1595.74 256.988C1595.13 257.372 1594.8 258.072 1594.88 258.787V260.656ZM1620.1 614.602H1620.04C1619.22 609.981 1618.4 605.158 1617.56 600.26L1617.56 600.247L1617.56 600.233C1617.07 597.36 1616.58 594.461 1616.08 591.562H1602.56V614.602H1620.04L1620.04 614.627L1620.1 614.602ZM1602.56 587.594H1615.36C1614.44 581.965 1613.49 576.323 1612.55 570.698L1612.55 570.676L1612.55 570.674C1612.2 568.631 1611.86 566.591 1611.52 564.554H1602.56V587.594ZM1610.8 560.56H1602.56V508.746C1604.79 523.44 1607.68 541.539 1610.85 560.56H1610.8ZM1600 239.51V241.379H1603.71V239.51C1603.8 238.795 1603.46 238.095 1602.85 237.711C1602.24 237.327 1601.47 237.327 1600.86 237.711C1600.25 238.095 1599.92 238.795 1600 239.51ZM1602.56 378.646V274.71H1619.2L1618.87 276.668L1618.87 276.669C1616.32 292.049 1607.74 343.715 1602.56 378.646ZM1615.92 258.813V260.682H1619.66V258.813C1619.66 257.781 1618.82 256.944 1617.79 256.944C1616.76 256.944 1615.92 257.781 1615.92 258.813ZM1624.96 241.379H1621.25V239.51C1621.25 238.478 1622.08 237.642 1623.12 237.642C1624.15 237.642 1624.99 238.478 1624.99 239.51L1624.96 241.379ZM1626.52 260.682H1630.23V258.813C1630.23 257.791 1629.41 256.958 1628.39 256.944C1627.36 256.944 1626.52 257.781 1626.52 258.813V260.682ZM1635.53 241.379H1631.82V239.51C1631.74 238.795 1632.07 238.095 1632.68 237.711C1633.29 237.327 1634.06 237.327 1634.67 237.711C1635.28 238.095 1635.62 238.795 1635.53 239.51V241.379Z" fill="#F4F5F5"/>
<path fill-rule="evenodd" clip-rule="evenodd" d="M1078 45.7893L598.657 164L597 163.211L1076.34 45L1078 45.7893Z" fill="#F4F5F5"/>
</svg>
