<svg width="336" height="171" viewBox="0 0 336 171" fill="none" xmlns="http://www.w3.org/2000/svg">
<path fill-rule="evenodd" clip-rule="evenodd" d="M83.8106 30.7895C88.4978 30.8174 93.1788 30.445 97.8027 29.6763H98.513V29.5342C110.99 27.2842 119.063 22.2632 126.923 17.3605L127.148 17.2217C136.534 11.4231 145.377 5.9598 161.584 4.87895H163.17H167.598C187.765 4.7377 197.664 10.844 208.152 17.3137L208.343 17.4316L208.639 17.6142C219.106 24.072 229.995 30.7895 251.432 30.7895C273.071 30.7895 284.104 24.0395 294.592 17.4316C299.18 14.3872 304.01 11.7256 309.034 9.47368C309.013 9.56731 309.013 9.66427 309.034 9.75789L309.862 9.37895C309.862 9.37895 309.862 9.23684 309.697 9.16579C311.33 8.50263 313.059 7.91053 314.858 7.36579C314.858 7.36579 314.858 7.50789 314.976 7.55526H315.308C315.297 7.48459 315.297 7.41278 315.308 7.34211C321.793 5.51975 328.507 4.64231 335.242 4.73684V0C313.603 0 302.665 6.82105 292.082 13.4289C281.499 20.0368 271.698 26.0526 251.432 26.0526C231.166 26.0526 221.246 19.9421 210.71 13.4289L210.142 13.0737C210.158 12.94 210.158 12.8048 210.142 12.6711L206.899 10.7053V11.1079L205.454 10.2553C205.557 10.1784 205.632 10.0704 205.667 9.94737L205.123 9.47368C204.995 9.52467 204.881 9.60594 204.791 9.71053C203.063 8.78684 201.24 7.81579 199.393 6.86842L199.536 6.58421L198.21 5.96842C198.106 6.0513 197.984 6.10815 197.855 6.13421C195.544 5.06389 193.172 4.13069 190.752 3.33947V3.10263L188.929 2.55789L188.787 2.74737C187.508 2.36842 186.183 2.03684 184.786 1.72895V1.58684L183.933 1.42105C183.923 1.46786 183.923 1.51635 183.933 1.56316C180.871 0.932807 177.771 0.497721 174.653 0.260526H173.28C171.457 0 169.586 0 167.621 0C145.982 0 134.949 6.82105 124.461 13.4289C113.973 20.0368 104.171 26.0526 84.1421 26.0526H83.0767C76.8753 26.0724 70.6983 25.2761 64.7046 23.6842V23.4711L63.2604 23.0447C63.2682 23.0997 63.2682 23.1555 63.2604 23.2105H63.1184L61.1533 22.5711L60.8929 22.2395L58.9752 21.4816V21.7895L58.0282 21.4342C57.9245 21.3121 57.7827 21.2287 57.6257 21.1974V21.3158C55.5186 20.4395 53.5536 19.4684 51.6359 18.45C51.5592 18.2355 51.4472 18.0353 51.3044 17.8579L50.6652 17.5026C50.4951 17.4526 50.3143 17.4526 50.1443 17.5026C50.1554 17.5494 50.1554 17.598 50.1443 17.6447L48.3213 16.5789L48.6291 16.3184L46.0722 14.7789C46.0607 14.9366 46.0607 15.0949 46.0722 15.2526L43.0891 13.4289C33.5242 7.41316 23.6753 1.25526 5.58737 0.189474H3.88275C2.67531 0 1.34949 0 0 0V4.73684C20.2661 4.73684 30.1623 10.8947 40.6505 17.4316C51.1387 23.9684 62.1714 30.7895 83.8106 30.7895ZM46.8063 15.7501L46.8062 15.7501L46.8061 15.75C47.3506 15.5368 47.8478 15.7026 48.1793 16.5789C47.7058 16.3185 47.2561 16.0343 46.8063 15.7501L46.8063 15.7501ZM83.8106 65.8658C92.2549 66.0139 100.66 64.6833 108.646 61.9342V62.1474L109.924 61.6974V61.3895C115.864 58.9541 121.55 55.9395 126.9 52.3895L126.954 52.3554C137.399 45.8548 147.296 39.6947 167.55 39.6947C187.687 39.6947 197.633 45.8304 208.105 52.29L208.343 52.4368L208.701 52.6577C219.151 59.1054 230.108 65.8658 251.503 65.8658C254.344 65.8658 256.995 65.8658 259.481 65.5105H260.476C267.419 64.8904 274.215 63.1467 280.6 60.3474C280.669 60.4376 280.758 60.5106 280.86 60.5605L281.263 60.3947C281.28 60.3008 281.28 60.2045 281.263 60.1105C282.825 59.4 284.293 58.6658 285.737 57.9079C285.713 58.0569 285.713 58.2089 285.737 58.3579L286.945 57.6947C286.93 57.5768 286.93 57.4574 286.945 57.3395C289.109 56.147 291.173 54.8977 293.204 53.6685L293.205 53.6683C293.796 53.3107 294.384 52.9549 294.971 52.6026C304.062 46.9421 312.751 41.5421 328.116 40.2158L330.484 40.0263C331.26 40.0263 332.047 39.9923 332.852 39.9576C333.691 39.9213 334.549 39.8842 335.432 39.8842V35.1474C313.793 35.1474 302.855 41.9684 292.272 48.5763C281.689 55.1842 271.887 61.2711 251.621 61.2711C244.756 61.3711 237.913 60.4696 231.308 58.5947L231.45 58.4053L230.053 57.9553L229.651 58.0263C222.956 55.6448 216.592 52.4216 210.71 48.4342C206.833 45.9082 202.809 43.6147 198.66 41.5658C198.671 41.4477 198.671 41.3287 198.66 41.2105L197.523 40.7132L197.381 40.9737C195.818 40.2395 194.161 39.5763 192.433 38.9605C192.513 38.9169 192.579 38.8511 192.622 38.7711L191.865 38.5105C191.906 38.6203 191.961 38.7239 192.03 38.8184C185.919 36.7193 179.543 35.4914 173.09 35.1711H171.244H167.669C146.029 35.1711 135.091 41.9921 124.508 48.6C113.926 55.2079 104.171 61.1289 83.8106 61.1289C78.976 61.1577 74.1492 60.7375 69.3923 59.8737V59.7316L67.5693 59.3289C67.5653 59.3999 67.5653 59.4711 67.5693 59.5421L66.575 59.2105L64.2074 58.5474V58.7605L62.929 58.3816C63.0357 58.3635 63.1346 58.314 63.2131 58.2395L62.5028 58.0026V58.2632C61.6032 57.9789 60.7272 57.6711 59.8512 57.3395C59.8649 57.2532 59.8649 57.1652 59.8512 57.0789L58.6437 56.6053V56.8658C54.8909 55.3213 51.2653 53.4841 47.8004 51.3711C47.8239 51.2299 47.8239 51.0859 47.8004 50.9447L46.9481 50.4474C46.9326 50.6128 46.9326 50.7793 46.9481 50.9447L43.0654 48.5763L42.5919 48.2921C42.6302 48.1526 42.6302 48.0053 42.5919 47.8658C42.3573 47.6756 42.0216 47.6756 41.7869 47.8658C40.5085 47.0605 39.23 46.2789 37.9278 45.4974V45.0474L37.0519 44.55V44.9053C33.7893 43.0002 30.3951 41.3302 26.8952 39.9079C27.1102 39.8357 27.343 39.8357 27.5581 39.9079L25.7351 39.2211V39.4579C21.0384 37.7043 16.1511 36.5119 11.1747 35.9053H10.4171C6.96587 35.3971 3.48725 35.0966 0 35.0053V39.7421C20.2084 39.7421 30.106 45.8886 40.5611 52.3813L40.6505 52.4368L40.8 52.5297C51.2438 59.0156 62.2742 65.8658 83.8106 65.8658ZM292.082 118.445C302.665 111.837 313.603 105.016 335.242 105.016L335.219 106.153L335.645 106.318V107.882C335.49 107.924 335.345 107.996 335.219 108.095V109.824C328.087 109.699 320.978 110.682 314.148 112.737V112.761C307.247 115.131 300.695 118.413 294.663 122.518C294.071 122.873 293.482 123.228 292.894 123.582L292.892 123.583C290.372 125.102 287.86 126.616 285.193 128.037C285.355 127.998 285.525 128.064 285.619 128.203L285.027 128.511V128.108C280.111 130.758 274.864 132.741 269.425 134.005C269.438 134.068 269.438 134.132 269.425 134.195H269.117C269.11 134.148 269.11 134.1 269.117 134.053C263.47 135.278 257.707 135.89 251.929 135.876H251.503C230.479 135.876 219.534 129.236 209.244 122.994C208.943 122.811 208.643 122.629 208.343 122.447L207.78 122.106C197.429 115.834 187.55 109.847 167.621 109.847C147.34 109.847 137.278 116.118 126.984 122.534L126.971 122.542C116.672 128.961 105.994 135.592 85.4915 135.924H83.8106C62.1968 135.924 51.1646 129.048 40.6874 122.518L40.6505 122.495C30.1623 115.958 20.2661 109.8 0 109.8V105.063H2.36753C9.54233 105.172 16.6606 106.353 23.4859 108.568C23.4987 108.49 23.4987 108.41 23.4859 108.332L25.2379 108.924V109.208C30.9937 111.421 36.4944 114.248 41.6449 117.639C41.6567 117.482 41.6567 117.323 41.6449 117.166L43.1364 118.089C43.0509 118.186 42.9864 118.299 42.947 118.421H43.1601C50.1324 123.243 57.8628 126.863 66.0303 129.13C66.0536 129.138 66.0774 129.145 66.1015 129.15L66.0303 129.13C65.914 129.092 65.8083 129.026 65.7227 128.937L66.8117 129.197C66.6397 129.231 66.4628 129.231 66.2909 129.197C72.0306 130.552 77.9136 131.204 83.8106 131.139C104.171 131.139 113.973 125.005 124.461 118.421C134.949 111.837 145.982 105.016 167.598 105.134C174.64 105.04 181.661 105.933 188.455 107.787V107.574L189.331 107.811L189.189 108C195.228 109.853 200.999 112.489 206.354 115.839V115.437L206.709 115.65C206.722 115.784 206.722 115.919 206.709 116.053L210.829 118.492L211.126 118.675C221.241 124.907 230.71 130.741 249.467 131.139H251.834C271.816 131.045 281.499 125.053 292.082 118.445ZM314.148 112.926C314.16 112.872 314.16 112.815 314.148 112.761V112.926ZM243.572 165.789C246.01 166.003 248.614 166.145 251.432 166.145C271.698 166.145 281.263 160.437 291.846 153.829C302.428 147.221 313.366 140.4 335.006 140.4V145.137H331.265H330.555C326.806 145.286 323.076 145.746 319.404 146.511V146.653H319.025V146.511C308.655 148.761 301.694 153.095 294.45 157.618C284.838 163.776 274.705 169.911 256.427 170.882C255.101 171 253.752 171 252.331 171H251.337C229.801 171 218.77 164.15 208.327 157.664L208.177 157.571L208.088 157.516C197.632 151.023 187.735 144.876 167.526 144.876C159.816 144.722 152.137 145.892 144.822 148.334V148.524L143.804 148.879C143.717 148.848 143.642 148.79 143.591 148.713C139.056 150.465 134.703 152.654 130.593 155.25C130.711 155.368 130.711 155.487 130.711 155.629L129.409 156.411C129.474 156.262 129.592 156.144 129.741 156.079L129.599 155.889L126.923 157.547C126.935 157.689 126.935 157.832 126.923 157.974L125.834 158.661C125.744 158.559 125.679 158.437 125.645 158.305L125.1 158.661H125.408V158.826L124.343 159.466C124.266 159.364 124.202 159.252 124.153 159.134C122.685 160.058 121.17 160.934 119.608 161.811V162.284L119.205 162.521C119.23 162.304 119.33 162.103 119.489 161.953C108.646 168.161 96.2988 171.252 83.8106 170.882C62.1968 170.882 51.1646 164.006 40.6874 157.476L40.6505 157.453C30.1623 150.916 20.2661 144.758 0 144.758V140.021C11.5053 139.68 22.9093 142.263 33.1454 147.529C33.121 147.42 33.121 147.307 33.1454 147.197L34.1398 147.576C34.1514 147.694 34.1514 147.813 34.1398 147.932C34.5298 148.151 34.931 148.371 35.3356 148.592L35.3359 148.592L35.3362 148.592C36.1104 149.016 36.8975 149.446 37.6437 149.897V149.471L38.7565 150.134V150.418L38.6381 150.537L43.3732 153.45C50.7835 158.068 57.9335 162.497 68.6584 164.7C68.6516 164.653 68.6516 164.605 68.6584 164.558L69.416 164.724V164.889C74.165 165.753 78.9839 166.173 83.8106 166.145C104.171 166.145 113.973 160.058 124.461 153.45C134.949 146.842 145.982 140.021 167.621 140.021C179.852 139.629 191.961 142.559 202.661 148.5L202.992 148.287V148.713C205.667 150.324 208.201 151.887 210.71 153.45L210.741 153.469C219.726 159.028 228.247 164.299 243.145 165.789H243.572ZM67.0485 164.226C67.3089 164.439 67.522 164.463 67.664 164.368L67.0485 164.226ZM55.2582 54.9474L54.5716 54.6158C54.5605 54.6625 54.5605 54.7112 54.5716 54.7579C54.7473 54.9441 55.0119 55.0172 55.2582 54.9474ZM44.699 83.9368L45.1251 84.1974C45.0062 84.2954 44.8514 84.3384 44.699 84.3158V83.9368ZM215.729 16.0105L216.014 16.2C215.943 16.2947 215.729 16.4132 215.729 16.3184V16.0105ZM272.858 98.2658L273.45 98.0763C273.34 98.0129 273.205 98.0129 273.095 98.0763C273.002 98.1196 272.921 98.1845 272.858 98.2658ZM292.082 83.4632C302.665 76.8553 313.603 70.0342 335.242 70.0342L336 70.0105V74.7474H335.053C332.063 74.7455 329.075 74.9116 326.104 75.2447H325.701C317.84 76.1102 310.228 78.5251 303.304 82.35C303.208 82.5268 303.121 82.7087 303.044 82.8947L302.168 83.25V82.8711C299.644 84.2713 297.253 85.7606 294.823 87.2742L294.592 87.4184C293.802 87.8937 293.021 88.3702 292.243 88.8455C289.569 90.478 286.919 92.0958 283.985 93.6C283.985 93.6143 284.003 93.6135 284.022 93.6126C284.065 93.6104 284.117 93.6078 283.985 93.7895C283.796 94.05 283.417 94.05 283.015 94.05L281.144 94.9263V95.2579L279.89 95.7789V95.5421C275.681 97.3298 271.291 98.656 266.797 99.4974V99.6395H266.205C261.351 100.49 256.431 100.902 251.503 100.871C230.108 100.871 219.151 94.1106 208.701 87.663L208.343 87.4421L208.267 87.3956C197.736 80.8998 187.839 74.7947 167.598 74.7947C147.343 74.7947 137.446 80.9548 127.002 87.4554L126.947 87.4895C117.69 93.2684 108.149 99.2132 91.434 100.611H90.9132C88.6877 100.8 86.3202 100.895 83.8106 100.895C62.2742 100.895 51.2437 94.0445 40.8 87.5586L40.6505 87.4658L40.5611 87.4102C30.106 80.9175 20.2084 74.7711 0 74.7711V70.0342H0.899662C9.66722 69.9612 18.3712 71.5275 26.5637 74.6526C26.4212 74.5386 26.3077 74.3925 26.2322 74.2263L26.7057 74.4158V74.6763C29.0431 75.5986 31.3273 76.6502 33.5479 77.8263C33.5594 77.7003 33.5594 77.5734 33.5479 77.4474L33.9977 77.6842C33.8852 77.7967 33.7306 77.8569 33.5716 77.85C36.9808 79.65 40.106 81.5684 43.1838 83.5105C47.921 86.6426 52.9192 89.3605 58.1229 91.6342C58.1559 91.5403 58.2039 91.4523 58.2649 91.3737L58.9278 91.6579V91.9658C60.4667 92.5816 62.0767 93.1263 63.7813 93.6237L63.6629 93.3632C64.3968 93.6 65.1308 93.8132 65.8884 94.0026V94.1684C69.4468 95.058 73.0742 95.6443 76.7317 95.9211C76.8553 95.9337 76.9798 95.9469 77.1051 95.96C77.9154 96.0454 78.7589 96.1342 79.6201 96.1342H83.8106C104.171 96.1342 113.855 90.0947 124.437 83.4868C135.02 76.879 145.958 70.0579 167.598 70.0579C171.071 70.049 174.541 70.2467 177.991 70.65H178.37C193.143 72.4974 202.045 78.0395 210.71 83.4395C216.592 87.4268 222.956 90.65 229.651 93.0316V92.8658V92.7474L230.479 93.0789C230.493 93.1494 230.493 93.2217 230.479 93.2921L231.402 93.5526C231.389 93.4902 231.389 93.4256 231.402 93.3632L232.018 93.5289V93.7421C234.025 94.3516 236.064 94.8497 238.126 95.2342V95.0921C239.192 95.3053 240.375 95.471 241.559 95.6368L241.559 95.6368H241.701C243.856 95.9211 246.247 96.1579 248.804 96.1579H251.834C271.816 96.0632 281.499 90.0711 292.082 83.4632Z" fill="#EEEEEE"/>
</svg>
